<svg xmlns="http://www.w3.org/2000/svg" xmlns:xlink="http://www.w3.org/1999/xlink" width="80" zoomAndPan="magnify" viewBox="0 0 60 30.000001" height="40" preserveAspectRatio="xMidYMid meet" version="1.0"><defs><g/></defs><g fill="#ff00ff" fill-opacity="1"><g transform="translate(2.270096, 14.057929)"><g><path d="M 0.734375 -2.574219 L 3.308594 -2.574219 L 3.308594 -9.003906 C 3.308594 -9.722656 3.878906 -10.292969 4.59375 -10.292969 L 11.027344 -10.292969 L 11.027344 -12.863281 L 4.59375 -12.863281 C 2.460938 -12.863281 0.734375 -11.136719 0.734375 -9.003906 Z M 11.027344 -7.71875 L 13.597656 -7.71875 L 13.597656 -10.292969 L 11.027344 -10.292969 Z M 3.308594 0 L 13.597656 0 L 13.597656 -3.859375 L 11.027344 -3.859375 L 11.027344 -2.574219 L 3.308594 -2.574219 Z M 3.308594 0 "/></g></g></g><g fill="#ff00ff" fill-opacity="1"><g transform="translate(16.6002, 14.057929)"><g><path d="M 11.027344 -2.574219 L 13.597656 -2.574219 L 13.597656 -9.003906 C 13.597656 -11.136719 11.851562 -12.863281 9.738281 -12.863281 L 3.308594 -12.863281 L 3.308594 -10.292969 L 9.738281 -10.292969 C 10.4375 -10.292969 11.027344 -9.722656 11.027344 -9.003906 Z M 4.59375 0 L 11.027344 0 L 11.027344 -2.574219 L 4.59375 -2.574219 C 3.878906 -2.574219 3.308594 -3.140625 3.308594 -3.859375 L 3.308594 -10.292969 L 0.734375 -10.292969 L 0.734375 -3.859375 C 0.734375 -1.726562 2.460938 0 4.59375 0 Z M 4.59375 0 "/></g></g></g><g fill="#ff00ff" fill-opacity="1"><g transform="translate(30.930303, 14.057929)"><g><path d="M 11.027344 -2.574219 L 13.597656 -2.574219 L 13.597656 -9.003906 C 13.597656 -11.136719 11.871094 -12.863281 9.738281 -12.863281 L 3.308594 -12.863281 L 3.308594 -10.292969 L 9.738281 -10.292969 C 10.457031 -10.292969 11.027344 -9.722656 11.027344 -9.003906 Z M 0.734375 0 L 11.027344 0 L 11.027344 -2.574219 L 3.308594 -2.574219 L 3.308594 -10.292969 L 0.734375 -10.292969 Z M 0.734375 0 "/></g></g></g><g fill="#ff00ff" fill-opacity="1"><g transform="translate(45.260406, 14.057929)"><g><path d="M 3.308594 -10.292969 L 13.597656 -10.292969 L 13.597656 -12.863281 L 3.308594 -12.863281 Z M 4.59375 0 L 13.597656 0 L 13.597656 -2.574219 L 4.59375 -2.574219 C 3.894531 -2.574219 3.308594 -3.140625 3.308594 -3.859375 L 3.308594 -10.292969 L 0.734375 -10.292969 L 0.734375 -3.859375 C 0.734375 -1.746094 2.480469 0 4.59375 0 Z M 4.574219 -5.144531 L 12.3125 -5.144531 L 12.3125 -7.71875 L 4.574219 -7.71875 Z M 4.574219 -5.144531 "/></g></g></g><g fill="#00ffff" fill-opacity="1"><g transform="translate(0.391192, 14.974332)"><g><path d="M 0.734375 -2.574219 L 3.308594 -2.574219 L 3.308594 -9.003906 C 3.308594 -9.722656 3.878906 -10.292969 4.59375 -10.292969 L 11.027344 -10.292969 L 11.027344 -12.863281 L 4.59375 -12.863281 C 2.460938 -12.863281 0.734375 -11.136719 0.734375 -9.003906 Z M 11.027344 -7.71875 L 13.597656 -7.71875 L 13.597656 -10.292969 L 11.027344 -10.292969 Z M 3.308594 0 L 13.597656 0 L 13.597656 -3.859375 L 11.027344 -3.859375 L 11.027344 -2.574219 L 3.308594 -2.574219 Z M 3.308594 0 "/></g></g></g><g fill="#00ffff" fill-opacity="1"><g transform="translate(14.721295, 14.974332)"><g><path d="M 11.027344 -2.574219 L 13.597656 -2.574219 L 13.597656 -9.003906 C 13.597656 -11.136719 11.851562 -12.863281 9.738281 -12.863281 L 3.308594 -12.863281 L 3.308594 -10.292969 L 9.738281 -10.292969 C 10.4375 -10.292969 11.027344 -9.722656 11.027344 -9.003906 Z M 4.59375 0 L 11.027344 0 L 11.027344 -2.574219 L 4.59375 -2.574219 C 3.878906 -2.574219 3.308594 -3.140625 3.308594 -3.859375 L 3.308594 -10.292969 L 0.734375 -10.292969 L 0.734375 -3.859375 C 0.734375 -1.726562 2.460938 0 4.59375 0 Z M 4.59375 0 "/></g></g></g><g fill="#00ffff" fill-opacity="1"><g transform="translate(29.051399, 14.974332)"><g><path d="M 11.027344 -2.574219 L 13.597656 -2.574219 L 13.597656 -9.003906 C 13.597656 -11.136719 11.871094 -12.863281 9.738281 -12.863281 L 3.308594 -12.863281 L 3.308594 -10.292969 L 9.738281 -10.292969 C 10.457031 -10.292969 11.027344 -9.722656 11.027344 -9.003906 Z M 0.734375 0 L 11.027344 0 L 11.027344 -2.574219 L 3.308594 -2.574219 L 3.308594 -10.292969 L 0.734375 -10.292969 Z M 0.734375 0 "/></g></g></g><g fill="#00ffff" fill-opacity="1"><g transform="translate(43.381502, 14.974332)"><g><path d="M 3.308594 -10.292969 L 13.597656 -10.292969 L 13.597656 -12.863281 L 3.308594 -12.863281 Z M 4.59375 0 L 13.597656 0 L 13.597656 -2.574219 L 4.59375 -2.574219 C 3.894531 -2.574219 3.308594 -3.140625 3.308594 -3.859375 L 3.308594 -10.292969 L 0.734375 -10.292969 L 0.734375 -3.859375 C 0.734375 -1.746094 2.480469 0 4.59375 0 Z M 4.574219 -5.144531 L 12.3125 -5.144531 L 12.3125 -7.71875 L 4.574219 -7.71875 Z M 4.574219 -5.144531 "/></g></g></g><g fill="#0088a9" fill-opacity="1"><g transform="translate(1.330644, 14.516131)"><g><path d="M 0.734375 -2.574219 L 3.308594 -2.574219 L 3.308594 -9.003906 C 3.308594 -9.722656 3.878906 -10.292969 4.59375 -10.292969 L 11.027344 -10.292969 L 11.027344 -12.863281 L 4.59375 -12.863281 C 2.460938 -12.863281 0.734375 -11.136719 0.734375 -9.003906 Z M 11.027344 -7.71875 L 13.597656 -7.71875 L 13.597656 -10.292969 L 11.027344 -10.292969 Z M 3.308594 0 L 13.597656 0 L 13.597656 -3.859375 L 11.027344 -3.859375 L 11.027344 -2.574219 L 3.308594 -2.574219 Z M 3.308594 0 "/></g></g></g><g fill="#0088a9" fill-opacity="1"><g transform="translate(15.660747, 14.516131)"><g><path d="M 11.027344 -2.574219 L 13.597656 -2.574219 L 13.597656 -9.003906 C 13.597656 -11.136719 11.851562 -12.863281 9.738281 -12.863281 L 3.308594 -12.863281 L 3.308594 -10.292969 L 9.738281 -10.292969 C 10.4375 -10.292969 11.027344 -9.722656 11.027344 -9.003906 Z M 4.59375 0 L 11.027344 0 L 11.027344 -2.574219 L 4.59375 -2.574219 C 3.878906 -2.574219 3.308594 -3.140625 3.308594 -3.859375 L 3.308594 -10.292969 L 0.734375 -10.292969 L 0.734375 -3.859375 C 0.734375 -1.726562 2.460938 0 4.59375 0 Z M 4.59375 0 "/></g></g></g><g fill="#0088a9" fill-opacity="1"><g transform="translate(29.990851, 14.516131)"><g><path d="M 11.027344 -2.574219 L 13.597656 -2.574219 L 13.597656 -9.003906 C 13.597656 -11.136719 11.871094 -12.863281 9.738281 -12.863281 L 3.308594 -12.863281 L 3.308594 -10.292969 L 9.738281 -10.292969 C 10.457031 -10.292969 11.027344 -9.722656 11.027344 -9.003906 Z M 0.734375 0 L 11.027344 0 L 11.027344 -2.574219 L 3.308594 -2.574219 L 3.308594 -10.292969 L 0.734375 -10.292969 Z M 0.734375 0 "/></g></g></g><g fill="#0088a9" fill-opacity="1"><g transform="translate(44.320954, 14.516131)"><g><path d="M 3.308594 -10.292969 L 13.597656 -10.292969 L 13.597656 -12.863281 L 3.308594 -12.863281 Z M 4.59375 0 L 13.597656 0 L 13.597656 -2.574219 L 4.59375 -2.574219 C 3.894531 -2.574219 3.308594 -3.140625 3.308594 -3.859375 L 3.308594 -10.292969 L 0.734375 -10.292969 L 0.734375 -3.859375 C 0.734375 -1.746094 2.480469 0 4.59375 0 Z M 4.574219 -5.144531 L 12.3125 -5.144531 L 12.3125 -7.71875 L 4.574219 -7.71875 Z M 4.574219 -5.144531 "/></g></g></g><g fill="#ff00ff" fill-opacity="1"><g transform="translate(17.160469, 27.122445)"><g><path d="M 0.734375 -10.292969 L 12.496094 -10.292969 L 12.496094 -12.863281 L 0.734375 -12.863281 Z M 9.1875 0 L 12.496094 0 L 12.496094 -2.574219 L 9.1875 -2.574219 C 8.492188 -2.574219 7.902344 -3.140625 7.902344 -3.859375 L 7.902344 -9.003906 L 5.347656 -9.003906 L 5.347656 -3.859375 C 5.347656 -1.746094 7.074219 0 9.1875 0 Z M 0.734375 0 L 5.328125 0 L 5.328125 -2.574219 L 0.734375 -2.574219 Z M 0.734375 0 "/></g></g></g><g fill="#ff00ff" fill-opacity="1"><g transform="translate(30.388252, 27.122445)"><g><path d="M 5.898438 0 L 8.453125 0 L 8.453125 -9.003906 C 8.453125 -11.136719 6.726562 -12.863281 4.59375 -12.863281 L 0.734375 -12.863281 L 0.734375 -10.292969 L 4.59375 -10.292969 C 5.3125 -10.292969 5.898438 -9.722656 5.898438 -9.003906 Z M 8.453125 -10.292969 L 13.597656 -10.292969 L 13.597656 -12.863281 L 8.453125 -12.863281 Z M 8.453125 -10.292969 "/></g></g></g><g fill="#00ffff" fill-opacity="1"><g transform="translate(15.281565, 28.038848)"><g><path d="M 0.734375 -10.292969 L 12.496094 -10.292969 L 12.496094 -12.863281 L 0.734375 -12.863281 Z M 9.1875 0 L 12.496094 0 L 12.496094 -2.574219 L 9.1875 -2.574219 C 8.492188 -2.574219 7.902344 -3.140625 7.902344 -3.859375 L 7.902344 -9.003906 L 5.347656 -9.003906 L 5.347656 -3.859375 C 5.347656 -1.746094 7.074219 0 9.1875 0 Z M 0.734375 0 L 5.328125 0 L 5.328125 -2.574219 L 0.734375 -2.574219 Z M 0.734375 0 "/></g></g></g><g fill="#00ffff" fill-opacity="1"><g transform="translate(28.509347, 28.038848)"><g><path d="M 5.898438 0 L 8.453125 0 L 8.453125 -9.003906 C 8.453125 -11.136719 6.726562 -12.863281 4.59375 -12.863281 L 0.734375 -12.863281 L 0.734375 -10.292969 L 4.59375 -10.292969 C 5.3125 -10.292969 5.898438 -9.722656 5.898438 -9.003906 Z M 8.453125 -10.292969 L 13.597656 -10.292969 L 13.597656 -12.863281 L 8.453125 -12.863281 Z M 8.453125 -10.292969 "/></g></g></g><g fill="#0088a9" fill-opacity="1"><g transform="translate(16.221017, 27.580647)"><g><path d="M 0.734375 -10.292969 L 12.496094 -10.292969 L 12.496094 -12.863281 L 0.734375 -12.863281 Z M 9.1875 0 L 12.496094 0 L 12.496094 -2.574219 L 9.1875 -2.574219 C 8.492188 -2.574219 7.902344 -3.140625 7.902344 -3.859375 L 7.902344 -9.003906 L 5.347656 -9.003906 L 5.347656 -3.859375 C 5.347656 -1.746094 7.074219 0 9.1875 0 Z M 0.734375 0 L 5.328125 0 L 5.328125 -2.574219 L 0.734375 -2.574219 Z M 0.734375 0 "/></g></g></g><g fill="#0088a9" fill-opacity="1"><g transform="translate(29.4488, 27.580647)"><g><path d="M 5.898438 0 L 8.453125 0 L 8.453125 -9.003906 C 8.453125 -11.136719 6.726562 -12.863281 4.59375 -12.863281 L 0.734375 -12.863281 L 0.734375 -10.292969 L 4.59375 -10.292969 C 5.3125 -10.292969 5.898438 -9.722656 5.898438 -9.003906 Z M 8.453125 -10.292969 L 13.597656 -10.292969 L 13.597656 -12.863281 L 8.453125 -12.863281 Z M 8.453125 -10.292969 "/></g></g></g></svg>